<svg width="56" height="56" viewBox="0 0 56 56" fill="none" xmlns="http://www.w3.org/2000/svg">
  <defs>
    <linearGradient id="iconGradient" x1="0%" y1="0%" x2="100%" y2="100%">
      <stop offset="0%" style="stop-color:#BDF738;stop-opacity:1" />
      <stop offset="100%" style="stop-color:#FDEE61;stop-opacity:1" />
    </linearGradient>
    <linearGradient id="flowIconGradient" x1="0%" y1="0%" x2="100%" y2="0%">
      <stop offset="0%" style="stop-color:#BDF738;stop-opacity:0.8" />
      <stop offset="50%" style="stop-color:#FDEE61;stop-opacity:1" />
      <stop offset="100%" style="stop-color:#BDF738;stop-opacity:0.8" />
    </linearGradient>
  </defs>
  
  <!-- Background circle -->
  <circle cx="28" cy="28" r="26" fill="url(#iconGradient)" opacity="0.1"/>
  
  <!-- Stack blocks -->
  <rect x="12" y="20" width="8" height="6" rx="1" fill="url(#iconGradient)" opacity="0.9"/>
  <rect x="15" y="16" width="8" height="6" rx="1" fill="url(#iconGradient)" opacity="0.7"/>
  <rect x="18" y="12" width="8" height="6" rx="1" fill="url(#iconGradient)"/>
  
  <!-- Flow lines -->
  <path d="M26 16 Q32 14, 38 16 Q44 18, 42 20" stroke="url(#flowIconGradient)" stroke-width="2" fill="none" opacity="0.8"/>
  <path d="M29 20 Q35 18, 41 20 Q44 22, 42 24" stroke="url(#flowIconGradient)" stroke-width="2" fill="none" opacity="0.6"/>
  <path d="M32 24 Q38 22, 44 24 Q44 26, 42 28" stroke="url(#flowIconGradient)" stroke-width="2" fill="none" opacity="0.4"/>
  
  <!-- Bitcoin symbol -->
  <circle cx="42" cy="36" r="4" fill="#F7931A" opacity="0.8"/>
  <text x="42" y="39" font-family="monospace" font-size="5" font-weight="bold" fill="#000" text-anchor="middle">₿</text>
</svg>
